<svg id="ab82d996-d758-4a94-9ad9-9e4bd5f70489" data-name="Layer 1" xmlns="http://www.w3.org/2000/svg" width="949.57" height="703.65" viewBox="0 0 949.57 703.65"><title>deliveries</title><g fill="none" fill-rule="evenodd"><path d="M683.32 418.43l7.47-4.61c.71-.45 1.41-.93 2.13-1.38-33.006-5.676-57.623-33.545-59.18-67a70.61 70.61 0 016.16-32.5 71.47 71.47 0 0145.81-39.52l-.37 29.4 16.15-32a.64.64 0 01.2 0 71.34 71.34 0 0174.59 67.94c.06 1.36 0 2.7 0 4 5.62-6.41 10.72-13.28 14.1-20.81 6.84-15.25 7-32.52 6.43-53.51-1.08-41.6-2.87-83.51-5.21-125.3-34.834-3.869-61.691-32.48-63.35-67.49-.1-2.19-.07-4.34 0-6.48 0-.53 0-1.07.08-1.6.14-2.07.33-4.12.65-6.14 0-.34.12-.66.18-1a75.343 75.343 0 011.05-5.08c.16-.62.31-1.25.48-1.87.5-1.82 1-3.61 1.69-5.38.21-.59.46-1.16.68-1.74.51-1.3 1.06-2.58 1.64-3.85.31-.67.61-1.33.94-2 .08-.17.15-.34.24-.51 15.536-30.687 50.768-45.905 83.76-36.18l-.48 38.26 16-31.6c26.937 15.419 40.714 46.567 34 76.87h.08c-.11.51-.27 1-.39 1.5-.22.94-.46 1.87-.72 2.8-.34 1.19-.72 2.36-1.11 3.53-.3.87-.59 1.76-.92 2.62-.48 1.26-1 2.49-1.58 3.72-.32.72-.61 1.45-1 2.16a66.852 66.852 0 01-3 5.4c-.37.61-.79 1.19-1.18 1.8a73.61 73.61 0 01-2.36 3.49c-.51.7-1.06 1.37-1.6 2.06-.78 1-1.58 2-2.41 2.91-.59.67-1.19 1.33-1.81 2-.87.92-1.77 1.81-2.7 2.69-.61.59-1.23 1.18-1.87 1.74-1.05.93-2.15 1.82-3.26 2.69-.56.44-1.1.9-1.68 1.32a69.702 69.702 0 01-5.23 3.53c-.34.2-.7.37-1 .57-1.5.89-3 1.72-4.61 2.5-.67.33-1.37.62-2.06.93-1.29.58-2.59 1.14-3.92 1.65-.77.29-1.56.56-2.35.83-1.31.45-2.64.86-4 1.23-.8.22-1.59.44-2.4.63-1.46.35-2.95.64-4.45.89-.1 0-.19 0-.29.06a4238.238 4238.238 0 012.63 52.91 71.3 71.3 0 0199-30.95l-12.61 34.55 25.94-24.91a71.14 71.14 0 0123 49.26 69.82 69.82 0 01-1.81 19.65c-6.668 28.478-30.05 49.998-58.983 54.283-28.933 4.286-57.55-9.53-72.187-34.853 0 1.79.13 3.59.18 5.38.47 18.52 1.06 41.56-8.17 62.14-6.25 13.95-16.32 25.28-26.27 35.43-6.47 6.61-13.18 13-20.06 19.19a71.34 71.34 0 01-25.76 21.42c-11.3 8.707-23 16.86-35.1 24.46l-7.35 4.74c-6.79 4.21-13.75 8.53-20.58 13 1.2-.12 2.39-.25 3.61-.3 31.021-1.453 59.422 17.32 70.24 46.43l-44.58 36.29 49-11.37A71.37 71.37 0 01649.2 583.6c1.1 1.38 2.21 2.75 3.31 4.12 2.19 2.73 4.37 5.44 6.5 8.13 29 36.73 37.08 71.61 22.71 98.2l-17.46-9.44c14-25.88-7-59-20.83-76.46-2.09-2.64-4.23-5.3-6.39-8-18.53-23-39.53-49.12-39-81.13.75-48.2 47.64-77.27 85.28-100.59z" fill="#F2F2F2"/><ellipse fill="#3D6DA2" cx="455.5" cy="683.65" rx="455.5" ry="21"/><path d="M823.49 675.82c3-5.51-.4-12.26-4.28-17.18-3.88-4.92-8.61-10-8.51-16.29.14-9 9.69-14.31 17.33-19.08a84.8 84.8 0 0015.55-12.51 22.79 22.79 0 004.79-6.4c1.57-3.52 1.53-7.52 1.43-11.38a823.932 823.932 0 00-1.9-38.48" stroke="#12346C" stroke-width="4"/><path d="M862.41 553.82a14.06 14.06 0 00-7-11.5l-3.14 6.22.09-7.52a14 14 0 00-18 14.12 14.016 14.016 0 0028-1.32h.05zM837.38 648.82a14 14 0 11.67-11.3l-8.76 7.13 9.64-2.24a14 14 0 01-1.55 6.41zM830.45 621.53a14 14 0 01-14.66-13.37 13.8 13.8 0 011.21-6.39 14.06 14.06 0 019-7.78l-.07 5.79 3.18-6.3c7.746-.362 14.318 5.624 14.68 13.37.362 7.746-5.624 14.318-13.37 14.68h.03zM864.52 598.82c-7.732.365-14.295-5.608-14.66-13.34-.365-7.732 5.608-14.295 13.34-14.66a13.9 13.9 0 017.52 1.78l-2.48 6.8 5.1-4.9a14 14 0 014.54 9.69 13.69 13.69 0 01-.36 3.86 14 14 0 01-13 10.77z" fill="#06B029"/><path d="M860.52 557.52c-3.24.36-6.39 1.37-9.64 1.57-3.25.2-6.82-.58-8.88-3.11-1.11-1.36-1.66-3.08-2.6-4.56a10 10 0 00-3.53-3.33 14 14 0 1026.24 9.32c-.54.02-1.07.06-1.59.11zM864.52 598.82a14 14 0 01-13.35-20 10.4 10.4 0 012.82 2.83c1 1.51 1.6 3.25 2.78 4.64 2.18 2.57 5.92 3.41 9.31 3.25 3.39-.16 6.65-1.11 10-1.42.46 0 .94-.08 1.41-.09a14 14 0 01-12.97 10.79zM830.45 621.53a14 14 0 01-14.66-13.37 13.8 13.8 0 011.21-6.39 11.52 11.52 0 013 2.85c1.09 1.54 1.77 3.31 3 4.73 2.37 2.64 6.35 3.57 9.94 3.48 3.59-.09 6.82-.93 10.28-1.19a14.06 14.06 0 01-12.77 9.89zM837.38 648.82c-3.176 7.066-11.479 10.22-18.545 7.045-7.066-3.176-10.22-11.479-7.045-18.545a14.56 14.56 0 013.08 2.75c1.33 1.63 2.21 3.47 3.76 5 2.87 2.81 7.5 4 11.62 4.08a60.15 60.15 0 007.13-.33z" fill="#000" opacity=".1"/><path d="M802.33 669.47s11.07-.34 14.41-2.72c3.34-2.38 17-5.22 17.87-1.4.87 3.82 16.65 19 4.14 19.06-12.51.06-29.06-2-32.39-4-3.33-2-4.03-10.94-4.03-10.94z" fill="#656380"/><path d="M838.97 683.08c-12.5.1-29.06-2-32.39-4-2.53-1.54-3.55-7.09-3.88-9.65h-.37s.7 8.93 4 11c3.3 2.07 19.88 4.08 32.39 4 3.61 0 4.86-1.32 4.79-3.22-.47 1.13-1.85 1.85-4.54 1.87z" fill="#000" opacity=".2"/><path d="M194.41 644.97c-7.26-13.44 1-29.9 10.44-41.88 9.44-11.98 21-24.44 20.75-39.71-.36-21.94-23.64-34.89-42.24-46.52a206.29 206.29 0 01-37.93-30.49c-4.57-4.67-9-9.65-11.66-15.61-3.84-8.58-3.74-18.33-3.49-27.73.8-31.333 2.347-62.607 4.64-93.82" stroke="#12346C" stroke-width="4"/><path d="M99.55 347.5a34.21 34.21 0 0117.08-28l7.66 15.15-.23-18.34a34.22 34.22 0 11-24.51 31.22v-.03zM160.57 579.06c7.073 13.785 22.53 21.093 37.673 17.81 15.142-3.281 26.186-16.333 26.917-31.81a33.76 33.76 0 00-2.23-13.88 34.22 34.22 0 00-64 .37l21.37 17.38-23.51-5.47a33.83 33.83 0 003.78 15.6zM177.46 512.64c17.367.794 32.57-11.56 35.345-28.723 2.774-17.163-7.762-33.679-24.495-38.397l.18 14.09-7.7-15.33h-.09c-18.88-.88-34.9 13.71-35.78 32.59-.88 18.88 13.71 34.9 32.59 35.78l-.05-.01zM94.4 457.37a34.22 34.22 0 10-15.12-64l6 16.57-12.39-11.97a34.06 34.06 0 00-11.1 23.62 33.37 33.37 0 00.87 9.42c3.495 14.896 16.456 25.66 31.74 26.36z" fill="#06AF29"/><path d="M104.15 356.62c7.9.87 15.58 3.32 23.5 3.81 7.92.49 16.63-1.4 21.64-7.56 2.7-3.32 4.05-7.52 6.33-11.14a24.28 24.28 0 018.62-8.11 34.22 34.22 0 11-64 22.71c1.33.06 2.63.15 3.91.29zM94.4 457.37a34.24 34.24 0 0032.55-48.8 25.31 25.31 0 00-6.88 6.88c-2.44 3.68-3.91 7.93-6.78 11.31-5.33 6.26-14.43 8.31-22.69 7.94-8.26-.37-16.23-2.73-24.45-3.48-1.14-.1-2.3-.18-3.45-.21 3.49 14.882 16.43 25.642 31.7 26.36zM177.46 512.64a34.21 34.21 0 0032.82-48.17 27.67 27.67 0 00-7.23 7c-2.66 3.75-4.32 8.07-7.43 11.53-5.77 6.43-15.47 8.7-24.22 8.49-8.47-.18-16.63-2.26-25.05-2.91a34.24 34.24 0 0031.11 24.06zM160.57 579.06c7.073 13.785 22.53 21.093 37.673 17.81 15.142-3.281 26.186-16.333 26.917-31.81a33.76 33.76 0 00-2.23-13.88 34.26 34.26 0 00-7.5 6.69c-3.25 4-5.4 8.46-9.16 12.16-7 6.86-18.29 9.7-28.34 10-5.8.02-11.598-.304-17.36-.97z" fill="#000" opacity=".1"/><path fill="#A50011" d="M431.22 664.95l-132 27-3-.3-116-11.7v-147l142-24 103 12 .03.65.01.32z"/><path fill="#000" opacity=".1" d="M431.22 664.95l-132 27-3-.3v-150.7l129.03-19.35z"/><path fill="#000" opacity=".05" d="M425.26 521.92l-.04.03-129 19-116-8 142-24 103 12 .03.65z"/><path fill="#12346C" d="M576.22 670.95l-132 27-3-.3-116-11.7v-147l142-24 103 12 .03.65.01.32z"/><path fill="#000" opacity=".1" d="M576.22 670.95l-132 27-3-.3v-150.7l129.03-19.35z"/><path fill="#000" opacity=".05" d="M570.26 527.92l-.04.03-129 19-116-8 142-24 103 12 .03.65z"/><path fill="#3D6DA2" d="M485.22 526.95l-132 27-3-.3-116-11.7v-147l142-24 103 12 .03.65.01.32z"/><path fill="#000" opacity=".1" d="M485.22 526.95l-132 27-3-.3v-150.7l129.03-19.35z"/><path fill="#000" opacity=".05" d="M479.26 383.92l-.04.03-129 19-116-8 142-24 103 12 .03.65z"/><path fill="#12346C" d="M560.22 533.11l-68.89 14.1-1.57-.16-60.54-6.11v-76.72l74.11-12.53 53.76 6.27.02.34v.16z"/><path fill="#000" opacity=".1" d="M560.22 533.11l-68.89 14.1-1.57-.16V468.4l67.35-10.1z"/><path fill="#000" opacity=".05" d="M557.11 458.46l-.02.02-67.33 9.92-60.54-4.18 74.11-12.53 53.76 6.27.02.34z"/><path fill="#12346C" d="M375.22 384.11l-68.89 14.09-1.57-.15-60.54-6.11v-76.72l74.11-12.53 53.76 6.27.02.34v.16z"/><path fill="#000" opacity=".1" d="M375.22 384.11l-68.89 14.09-1.57-.15V319.4l67.35-10.1z"/><path fill="#000" opacity=".05" d="M372.11 309.46l-.02.02-67.33 9.92-60.54-4.18 74.11-12.53 53.76 6.27.02.34z"/><path fill="#E77981" d="M496.22 381.11l-68.89 14.09-1.57-.15-60.54-6.11v-76.72l74.11-12.53 53.76 6.27.02.34v.16z"/><path fill="#000" opacity=".1" d="M496.22 381.11l-68.89 14.09-1.57-.15V316.4l67.35-10.1z"/><path fill="#000" opacity=".05" d="M493.11 306.46l-.02.02-67.33 9.92-60.54-4.18 74.11-12.53 53.76 6.27.02.34z"/><path fill="#12346C" d="M532.22 304.11l-68.89 14.09-1.57-.15-60.54-6.11v-76.72l74.11-12.53 53.76 6.27.02.34v.16z"/><path fill="#000" opacity=".1" d="M532.22 304.11l-68.89 14.09-1.57-.15V239.4l67.35-10.1z"/><path fill="#000" opacity=".05" d="M529.11 229.46l-.02.02-67.33 9.92-60.54-4.18 74.11-12.53 53.76 6.27.02.34z"/><path d="M579.14 147.27c-.73 6.5-5.69 11.74-7.53 18-2.76 9.45 2 19.6 8.56 27a59.77 59.77 0 0041.62 19.74c2.32.2 4.657-.055 6.88-.75a14.94 14.94 0 005.23-3.58c4.92-4.95 7.57-11.8 8.62-18.71 1.05-6.91.65-13.94.24-20.91a11.83 11.83 0 00-.78-4.22 10.72 10.72 0 00-2.71-3.33 63 63 0 00-11.65-8.47c-1.8-1-3.73-2-4.88-3.73a12.21 12.21 0 01-1.51-4.47l-1.29-6.56a12.86 12.86 0 00-1.89-5.32c-2.27-3.06-6.62-3.48-10.43-3.63l-14-.55c-4.35-.17-10.07-1.42-14.32-.56-4 .79-2.65 4.45-1.93 7.77a56.18 56.18 0 011.77 12.28z" fill="#FFC0C6"/><path d="M579.14 147.27c-.73 6.5-5.69 11.74-7.53 18-2.76 9.45 2 19.6 8.56 27a59.77 59.77 0 0041.62 19.74c2.32.2 4.657-.055 6.88-.75a14.94 14.94 0 005.23-3.58c4.92-4.95 7.57-11.8 8.62-18.71 1.05-6.91.65-13.94.24-20.91a11.83 11.83 0 00-.78-4.22 10.72 10.72 0 00-2.71-3.33 63 63 0 00-11.65-8.47c-1.8-1-3.73-2-4.88-3.73a12.21 12.21 0 01-1.51-4.47l-1.29-6.56a12.86 12.86 0 00-1.89-5.32c-2.27-3.06-6.62-3.48-10.43-3.63l-14-.55c-4.35-.17-10.07-1.42-14.32-.56-4 .79-2.65 4.45-1.93 7.77a56.18 56.18 0 011.77 12.28z" fill="#000" opacity=".1"/><path d="M668.05 440.03l-5.94 65.12c-1.55 17.08-3.13 34.23-6.17 51.09-1 5.81-2.28 11.59-3.74 17.32-4.06 15.91-9.95 31.46-11.85 47.77-.06.47-.11 1-.16 1.43-.39 3.6-.73 7.24-2 10.6-1 2.49-2.41 4.76-3.44 7.22-2 4.92-2.32 10.36-2.57 15.69a67.64 67.64 0 00-23.29-8c-4-.59-8.35-1-11-4-3-3.26-2.65-8.25-2.15-12.63 1.573-13.6 3.14-27.193 4.7-40.78a106.28 106.28 0 013-17.32c.54-1.89 1.19-3.75 1.85-5.61.91-2.56 1.83-5.12 2.52-7.75a93.33 93.33 0 001.98-12.83c1.61-13.68 3.55-27.33 5.25-41l.09-.72c2.55-20.72 4.49-41.54 3.93-62.41-.08-3.09-.21-6.18-.41-9.28-.28-4.49-.69-6.87 3-9.68 4.11-3.1 9.52-5.27 14.22-7.3 2.53-1.1 30.39-11 31-8.82a54.29 54.29 0 012 14.22c.056 5.9-.217 11.8-.82 17.67z" fill="#687DA1"/><path d="M655.94 556.24c-1 5.81-2.28 11.59-3.74 17.32-4.06 15.91-9.95 31.46-11.85 47.77-.06.47-.11 1-.16 1.43-12.42-17.74-22.88-36.82-35-54.75.91-2.56 1.83-5.12 2.52-7.75a93.33 93.33 0 002.08-12.91c1.61-13.68 3.55-27.33 5.25-41l.09-.72a42.47 42.47 0 003 8.41c8.14 16.54 27.48 24.9 36.94 40.73.313.493.603.983.87 1.47z" fill="#000" opacity=".1"/><path d="M555.16 410.82c.41 13.26 2.53 26.41 4.65 39.51l4.37 27c2.39 14.8 4.89 29.89 11.89 43.14 5.24 9.92 12.78 18.38 19.61 27.27 16.78 21.86 29.39 46.63 45.3 69.13 4.63 6.54 11.24 13.62 19.13 12.25 5.18-.89 8.94-5.21 13-8.53 4.8-3.92 10.58-6.79 14.36-11.71 3.78-4.92 4.52-13.08-.6-16.58-1.75-1.19-3.88-1.64-5.86-2.4-7.93-3-13.07-10.76-16.33-18.6-3.26-7.84-5.25-16.25-9.6-23.54-9.46-15.83-28.81-24.19-36.95-40.74-4.56-9.26-5-20-5.34-30.27l-.89-26.31c-.1-2.88-.17-5.87 1-8.5 3.11-7 12.51-7.66 20.13-8.55a68.75 68.75 0 0024.67-7.78c4.39-2.37 8.67-5.39 11-9.79 2.14-4 2.43-8.71 2.68-13.25l2.64-47.69c.23-4.1.43-8.35-1-12.19-3.63-9.66-15.83-12.82-26.14-12.36-19.18.86-36.88 9.11-55 14.69-4.49 1.38-9 2.62-13.63 3.55-4 .81-9 .48-12.84 1.78-6.88 2.32-6.71 17.38-7.68 23.62a198.29 198.29 0 00-2.57 36.85z" fill="#687DA1"/><path d="M657.51 631.14c1.69 1.71 2.24 4.21 2.68 6.57a224.15 224.15 0 013.8 39.71 6.58 6.58 0 00.71 3.6 4.59 4.59 0 001.87 1.5c4.89 2.33 10.56-.92 14.64-4.49 7.55-6.61 13.94-15.49 14.37-25.52.11-2.58-.18-5.19.27-7.74.66-3.78 2.87-7.07 4.81-10.37a88.05 88.05 0 008-17.82c.74-2.34 1.24-5.28-.6-6.91a6.43 6.43 0 00-2.17-1.13l-22.1-8.2c-1.92-.71-6.68 11.52-7.43 12.86-1.85 3.27-3.69 5.12-7.4 5.88-3.71.76-8.29-.34-11.83 1.55-6 3.19-3.01 7.1.38 10.51zM623.43 638.69a6.73 6.73 0 00-1.68-2.13 7.53 7.53 0 00-3.39-1.15c-4.2-.72-9.18-1.19-12.09 1.94-2.72 2.93-2.25 7.7-4.52 11-.72 1-1.7 1.9-2.32 3a11.26 11.26 0 00-1 5.38c-.12 5.09-.24 10.2.12 15.28.29 4.26 1 8.73 3.67 12.07 4.28 5.36 12 6.13 18.84 6.47l5.55.29a11 11 0 004.54-.42 7.45 7.45 0 003.92-4.31c2.89-7.18-1.68-14.91-4.5-22.11-3.25-8.29-2.67-17.48-7.14-25.31z" fill="#0C2245"/><path d="M577.54 110.62a4.53 4.53 0 01.31-2.14c.81-1.43 2.93-1 4.53-.64 6.43 1.62 13.21.15 19.84.53 6.63.38 14.09 3.69 15.42 10.19A48.21 48.21 0 00629.87 106c1.84-2.75 3.44-5.9 3.19-9.2-.36-4.76-4.35-8.32-8-11.34l-11-9a16.71 16.71 0 00-4.94-3.14c-2.54-.87-5.32-.45-8-.45-8 0-16.58-3.65-23.71 0-3 1.53-5.23 4.16-7.39 6.72l-9.83 11.64a6.21 6.21 0 00-1.58 2.67c-.28 1.42.45 2.82.71 4.25.46 2.6-.66 5.38.2 7.88 1.43 4.14 6.47 4.73 9.55 7.11 1.14.88 2.94 3.89 4.31 3.85 2.41-.05 4.09-4.45 4.16-6.37z" fill="#12346C"/><circle fill="#FFC0C6" cx="594.22" cy="113.45" r="31.5"/><path d="M601.6 182.38a15.26 15.26 0 00-14.81-10.22 4.45 4.45 0 01-2.74-.35 3.79 3.79 0 01-1.13-1.4 55.73 55.73 0 01-4.59-10.86c-.5-1.67-1.19-3.64-2.88-4.07-1.36-.35-2.75.53-3.66 1.6a35 35 0 01-2.62 3.29c-4 3.54-11 .31-15.19 3.56-.69.53-1.26 1.21-2 1.7a9.1 9.1 0 01-2.31 1 221.38 221.38 0 00-23.88 9.33c2.8 16.84 5.66 34 12.22 49.75 3.12 7.5 6.65 14.85 9.15 22.58 5.54 17.13 5.78 35.46 5.85 53.47 0 12.32 0 24.9-4 36.56-.9 2.64-2 5.26-2.25 8s.57 5.84 2.82 7.48a9.51 9.51 0 004.35 1.53c6.91 1 13.87-.82 20.67-2.4 18.23-4.22 36.83-6.64 55.38-9l31.1-4a18.19 18.19 0 006.44-1.67c5.69-3.11 6.23-11.67 2.69-17.11-1.69-2.61-4.08-4.75-5.51-7.51-1.43-2.76-1.54-6.64.91-8.55 5-3.9 3.5-11.13 3.74-17.45.667-17.68.577-35.347-.27-53a103.72 103.72 0 01-.18-11c.35-6.22 1.89-12.31 3.43-18.36l9.45-37.2c-2.47-3.9-7.2-6.38-11.67-7.5s-9.14-1.45-13.55-2.82c-9-2.8-17.08-9.9-26.51-9.24a4.85 4.85 0 00-2.06.5c-2.12 1.21-1.79 4.27-1.92 6.71-.3 5.41-4.28 9.92-8.66 13.09s-9.4 5.47-13.43 9.08a6 6 0 00-2.38 4.48z" fill="#12346C"/><path d="M476.79 217.67a37 37 0 01-6.62 3.41c-2.2.87-4.55 1.56-6.35 3.08a10.05 10.05 0 00-2.21 2.73 12.13 12.13 0 0011.18 18.07c2.89-.15 5.62-1.32 8.27-2.47l22.22-9.67c3.76-1.63 7.82-3.53 9.6-7.23a1.74 1.74 0 00.22-1.15 1.89 1.89 0 00-.92-1 49.77 49.77 0 01-12.93-12.2c-.91-1.24-2-4.16-3.32-4.91-4.7-2.61-15.37 8.9-19.14 11.34zM714.31 209.82l8.19 9.36c1.76 2 3.52 4 5.12 6.16a71.67 71.67 0 019.38 17.67c1.78 4.67 3.26 9.65 2.64 14.61a36 36 0 01-2.05 7.43 91.86 91.86 0 01-5.57 13.4 76.26 76.26 0 01-6.23 9.37 219.1 219.1 0 01-20.77 23.75c-2.8 2.77-4 7.26-5.19 11-2.25 6.91-7.6 12.3-12.77 17.4a35.19 35.19 0 01-5.49 4.72 17.8 17.8 0 01-10 2.84 11 11 0 01-4.49-.93c-3.54-1.68-5.34-5.77-5.71-9.67a20.7 20.7 0 011.72-10.36c4.7-10.41 16.77-14.92 25.3-22.52 5-4.45 8.83-10.05 12.61-15.58a54.05 54.05 0 006.37-11.17c1.9-5.09 1.16-11.11 2.83-16.27.7-2.19 2-4.16 2.71-6.33s.95-4.74-.38-6.61a9.55 9.55 0 00-3.71-2.72c-5.45-2.76-11.55-6.32-12.59-12.35a13.22 13.22 0 012.44-9.43 39 39 0 016.87-7.2c2.37-2.14 6.38-4.51 8.77-6.57z" fill="#FFC0C6"/><path d="M471.53 230.73c-1.44-2.92-3.25-5.9-6.17-7.35a11.36 11.36 0 00-9 0 34.12 34.12 0 00-7.88 4.76l-7.06 5.21a17.37 17.37 0 00-4.19 3.87 16.11 16.11 0 00-2.18 6c-1 4.87-1.81 9.88-1.11 14.81 1.12 8 5.92 14.92 11.2 21 3.3 3.78 7.38 7.6 12.4 7.77 2.17.07 4.58-.79 5.48-2.76a6.83 6.83 0 00.49-2.46c.54-8.88-2.64-17.55-6.34-25.64-1-2.2-2.08-4.48-2-6.89a1.86 1.86 0 01.3-1.16 1.94 1.94 0 011.2-.59c5.07-1 13.81 2.94 17.36-2.69 2.3-3.72-.86-10.57-2.5-13.88z" fill="#FFC0C6"/><path d="M575.88 100.71a4.66 4.66 0 01.32-2.14c.81-1.44 2.93-1 4.53-.64 6.43 1.62 13.21.15 19.84.53 6.63.38 14.08 3.69 15.42 10.19a48.53 48.53 0 0012.23-12.56c1.84-2.76 3.44-5.91 3.19-9.21-.36-4.76-4.36-8.32-8-11.33l-11-9a16.66 16.66 0 00-4.93-3.14c-2.55-.87-5.32-.45-8-.45-8 0-16.58-3.65-23.71 0-3 1.53-5.23 4.16-7.39 6.72l-9.84 11.64a6.23 6.23 0 00-1.57 2.67c-.28 1.42.45 2.82.71 4.25.46 2.6-.66 5.38.2 7.87 1.43 4.15 6.47 4.74 9.55 7.12 1.14.88 2.94 3.89 4.31 3.85 2.37-.05 4.05-4.45 4.14-6.37zM508.98 187.03a13.06 13.06 0 00-3.3 3.07c-1.15 1.75-1.39 4-2.38 5.8-2.12 3.94-7.09 5.35-10.18 8.58a3.19 3.19 0 00-1 1.68 3.71 3.71 0 00.83 2.42l14.94 23.48c5 .44 9.74-2.68 14.72-2.26 1.85.15 3.76.79 5.54.24a16.1 16.1 0 003.55-2.17c3-1.88 6.92-2.1 9.41-4.57s2.7-6.1 2.67-9.47a37.37 37.37 0 00-.89-8.7c-2.2-9-9.09-15.94-13.41-23.92-2.11-3.89-3.25-6.16-7.7-3.49s-8.59 6.23-12.8 9.31zM690.39 175.16a35.07 35.07 0 017.52 6.58c2.27 2.93 3.56 6.53 5.75 9.53 2.19 3 5 5.16 7.4 7.84 3.65 4.06 6.12 9 8.54 13.91a208.6 208.6 0 01-19.32 21.8 6.19 6.19 0 01-2.94 1.92 4.71 4.71 0 01-4.14-1.69c-1.08-1.12-1.84-2.52-2.87-3.69a14.75 14.75 0 00-9.13-4.41 62.72 62.72 0 00-10.35-.15 4 4 0 01-2.21-.37 3.65 3.65 0 01-1.2-1.38c-4-6.88-2.75-15.52-1.32-23.38l3.27-18a40.44 40.44 0 012.73-10c1.24-2.65 4-7.15 7.42-6.35 3.42.8 7.96 5.76 10.85 7.84z" fill="#12346C"/><path fill="#DF2B3C" d="M405.22 307.11l-68.89 14.09-1.57-.15-60.54-6.11v-76.72l74.11-12.53 53.76 6.27.02.34v.16z"/><path fill="#000" opacity=".1" d="M405.22 307.11l-68.89 14.09-1.57-.15V242.4l67.35-10.1z"/><path fill="#000" opacity=".05" d="M402.11 232.46l-.02.02-67.33 9.92-60.54-4.18 74.11-12.53 53.76 6.27.02.34z"/><path fill="#80B1D6" d="M441.22 231.11l-68.89 14.1-1.57-.16-60.54-6.11v-76.72l74.11-12.53 53.76 6.27.02.34v.16z"/><path fill="#000" opacity=".1" d="M441.22 231.11l-68.89 14.1-1.57-.16V166.4l67.35-10.1z"/><path fill="#000" opacity=".05" d="M438.11 156.46l-.02.02-67.33 9.92-60.54-4.18 74.11-12.53 53.76 6.27.02.34z"/></g></svg>
