<svg id="b49c538b-d2f0-4d56-8d1f-7f4005552b2e" data-name="Layer 1" xmlns="http://www.w3.org/2000/svg" width="809.83511" height="872.15034" viewBox="0 0 809.83511 872.15034"><title>completed</title><g fill="none" fill-rule="evenodd"><circle fill="#F2F2F2" cx="477.835" cy="500.15" r="373"/><ellipse fill="#12346C" cx="244.921" cy="388.393" rx="19.083" ry="24.981"/><ellipse fill="#12346C" cx="244.921" cy="357.861" rx="19.083" ry="24.981"/><path d="M316.356 148.92a91.61 91.61 0 007.107-10.46l-50.141-8.236 54.229.404a91.566 91.566 0 001.745-72.426l-72.754 37.74 67.096-49.32C306.505 17.014 274.274-.55 240.106 1.102c-34.168 1.65-64.555 22.241-78.754 53.363-14.198 31.122-9.832 67.567 11.315 94.455a91.458 91.458 0 00-10.424 16.67l65.086 33.814-69.4-23.292a91.46 91.46 0 0014.738 85.837c-29.474 37.472-25.198 91.305 9.823 123.654 35.02 32.349 89.023 32.349 124.044 0 35.02-32.35 39.297-86.182 9.822-123.654 26.082-33.163 26.082-79.867 0-113.029z" fill="#DF2B3C"/><path d="M153.106 205.434a91.013 91.013 0 0019.561 56.515c-29.474 37.472-25.198 91.305 9.823 123.654 35.02 32.349 89.023 32.349 124.044 0 35.02-32.35 39.297-86.182 9.822-123.654 12.251-15.553-163.25-66.774-163.25-56.515z" fill="#000" opacity=".1"/><path d="M746.584 746.544C722.93 830.83 540.417 909.005 346.33 854.538 152.245 800.071 20.082 633.59 43.736 549.302c23.653-84.287 194.166-54.46 388.252.006 194.087 54.467 338.25 112.949 314.596 197.236z" fill="#12346C"/><path d="M746.584 746.544C722.93 830.83 540.417 909.005 346.33 854.538 152.245 800.071 20.082 633.59 43.736 549.302c23.653-84.287 194.166-54.46 388.252.006 194.087 54.467 338.25 112.949 314.596 197.236z" fill="#000" opacity=".1"/><ellipse fill="#3D6DA2" transform="rotate(-74.324 395.16 647.923)" cx="395.16" cy="647.923" rx="158.511" ry="365"/><path d="M260.02 434.191a30.114 30.114 0 003.983-15.266c0-13.796-8.543-24.98-19.082-24.98-10.54 0-19.083 11.184-19.083 24.98a30.114 30.114 0 003.983 15.266 31.248 31.248 0 000 30.532 31.248 31.248 0 000 30.532 31.248 31.248 0 000 30.532 30.114 30.114 0 00-3.983 15.266c0 13.797 8.544 24.981 19.083 24.981 10.539 0 19.082-11.184 19.082-24.98a30.114 30.114 0 00-3.983-15.267 31.248 31.248 0 000-30.532 31.248 31.248 0 000-30.532 31.248 31.248 0 000-30.532z" fill="#12346C"/><ellipse fill="#000" opacity=".1" cx="335.835" cy="653.15" rx="107" ry="31"/><path d="M467.59 474.755L332.259 610.088l-56.881-56.881c-7.594-7.594-19.905-7.594-27.498 0l-2.044-3.057c-7.593 7.594-5.55 22.962 2.043 30.555l73.803 73.802c5.792 5.792 15.181 5.794 20.976.006l152.418-152.26c7.598-7.59 10.355-21.508 2.76-29.103-7.591-7.591-22.653-5.986-30.244 1.605z" fill="#06B029"/><path d="M467.59 474.755L332.259 610.088l-56.881-56.881c-7.594-7.594-19.905-7.594-27.498 0l-2.044-3.057c-7.593 7.594-5.55 22.962 2.043 30.555l73.803 73.802c5.792 5.792 15.181 5.794 20.976.006l152.418-152.26c7.598-7.59 10.355-21.508 2.76-29.103-7.591-7.591-22.653-5.986-30.244 1.605z" fill="#000" opacity=".1"/><path d="M467.59 468.755L332.259 604.088l-56.881-56.881c-7.594-7.594-19.905-7.594-27.498 0a19.444 19.444 0 000 27.498l73.802 73.802c5.792 5.792 15.181 5.794 20.976.006l152.418-152.26a19.44 19.44 0 00.007-27.498c-7.592-7.591-19.9-7.591-27.491 0z" fill="#06B029"/><path d="M533.492 699.126s-12.103 3.63-18.154 10.892c0 0-10.893 4.841-17.55 3.631-6.656-1.21-18.759 10.893-9.077 14.523 9.683 3.631 68.987 13.314 70.197 10.288 1.21-3.026 1.21-33.888 1.21-33.888l-26.626-5.446zM628.562 693.929s-11.305 5.645-16.027 13.833c0 0-9.906 6.63-16.671 6.575-6.765-.055-16.623 13.937-6.463 15.86 10.16 1.924 70.247 1.335 70.922-1.853.676-3.188-4.596-33.597-4.596-33.597l-27.165-.818z" fill="#687DA1"/><circle fill="#FFB9B9" cx="553.159" cy="256.463" r="27.231"/><path d="M575.247 261.001s3.026 20.575 8.472 22.996a40.208 40.208 0 0110.287 7.261l-15.128 7.262-29.652-1.815s2.42-13.313-1.816-19.97c-4.236-6.657 27.837-15.734 27.837-15.734zM631.525 358.43s13.919 35.703 0 70.196c-13.918 34.493-19.97 39.94-19.97 39.94l-4.235-45.386 4.87-4.419s2.95-13.77.553-21.922c-2.398-8.152 1.233-33.568 1.233-33.568l17.55-4.842z" fill="#FFB9B9"/><path d="M527.44 435.888s-17.549 39.94-15.733 59.304c1.815 19.365 15.734 101.06 15.734 101.06s-1.816 105.294 3.63 105.294c5.447 0 31.468 9.682 31.468 3.026 0-6.657 5.446-166.415 5.446-166.415s30.863 70.197 33.888 75.643c3.026 5.447 22.39 90.772 29.047 90.772s27.232-6.052 25.416-10.288c-1.815-4.236-22.39-98.638-33.888-122.844-11.497-24.206-9.077-115.582-9.077-115.582l-19.364-42.36-66.566 22.39z" fill="#0C2245"/><path d="M544.99 244.057s-16.944-1.21-18.154-5.446c-1.21-4.236-3.631-7.867-2.421-7.867s1.815-3.026 1.815-3.026 1.21-.605 1.816 0c.605.605 1.21-4.236 1.21-4.236s.605-1.815 1.21-.605c.606 1.21.606.605 1.21-1.21.606-1.816 3.632-3.026 3.632-3.026s11.497.605 13.313-1.815c1.815-2.42 22.39-.605 26.626 2.42 4.236 3.026 22.996 13.919 19.97 22.996-3.026 9.077-13.918 29.047-13.918 32.072 0 3.026-4.236 2.421-5.447-.605-1.21-3.025-10.892-6.656-10.892-8.472 0-1.815-5.447-18.76-8.472-17.549-3.026 1.21-6.657 10.893-7.867 9.077-1.21-1.815-3.631-12.708-3.631-12.708z" fill="#12346C"/><path d="M628.5 326.962s-24.811-36.309-32.073-38.124c-7.262-1.816-23.6-6.657-23.6-6.657s-16.34 2.42-21.18 4.841c-4.842 2.421-22.996 6.657-23.601 13.919-.605 7.261 4.841 76.853 1.815 83.51-3.025 6.656-13.313 70.196-8.472 68.986 4.841-1.21 1.21-16.944 22.39-17.55 21.18-.604 32.678-13.312 40.545 1.816 7.867 15.129 30.257 26.627 30.257 26.627.563-4.879 1.371-9.726 2.421-14.524 1.815-8.472-4.841-29.047-4.841-29.047s.605-47.806 3.026-53.252c2.42-5.447 13.313-40.545 13.313-40.545z" fill="#687DA1"/><path d="M619.423 325.752l9.077 1.21s-.605 12.103 1.815 15.734c2.42 3.63 6.657 22.39 4.236 22.995-2.42.605-24.206 4.236-24.206 4.236l-1.21-27.836 10.288-16.34z" fill="#687DA1"/><path d="M521.39 347.537s-6.052 39.334-9.078 44.175c-3.026 4.842-18.154 72.618-18.154 72.618s-24.878 34.596-12.775 33.99c12.103-.605 24.878-31.57 24.878-31.57s37.519-68.381 37.519-75.643c0-7.261 9.077-43.57 9.077-43.57h-31.468z" fill="#FFB9B9"/><path d="M538.938 294.284l-10.892 4.236s-13.918 49.622-10.893 53.858c3.026 4.236 39.335-1.815 39.94-3.63.605-1.816-6.657-54.464-18.155-54.464z" fill="#687DA1"/><path d="M52.392 421.793c0 42.17 26.455 76.294 59.15 76.294" fill="#12346C"/><path d="M111.541 498.087c0-42.644 29.523-77.151 66.007-77.151M73.823 425.616c0 40.057 16.87 72.471 37.718 72.471" fill="#DF2B3C"/><path d="M111.541 498.087c0-54.49 34.124-98.582 76.294-98.582M99.098 498.625s8.388-.258 10.916-2.059c2.528-1.8 12.903-3.95 13.53-1.062.628 2.887 12.607 14.359 3.136 14.435-9.47.077-22.005-1.475-24.528-3.012-2.523-1.537-3.054-8.302-3.054-8.302z" fill="#12346C"/><path d="M126.85 508.934c-9.471.077-22.006-1.475-24.529-3.012-1.921-1.17-2.687-5.37-2.943-7.308-.178.008-.28.011-.28.011s.531 6.765 3.054 8.302c2.523 1.537 15.058 3.089 24.528 3.012 2.734-.022 3.678-.994 3.627-2.435-.38.87-1.423 1.414-3.458 1.43z" fill="#000" opacity=".2"/></g></svg>
