<svg id="aa03ddf9-f8f2-4819-a4ce-be9b0a220741" data-name="Layer 1" xmlns="http://www.w3.org/2000/svg" width="1119.60911" height="699" viewBox="0 0 1119.60911 699"><title>server down</title><g fill="none" fill-rule="evenodd"><circle fill="#F2F2F2" cx="292.609" cy="213" r="213"/><path d="M0 51.142c0 77.498 48.618 140.209 108.7 140.209" fill="#0C2245"/><path d="M108.7 191.35c0-78.368 54.256-141.783 121.304-141.783M39.384 58.168c0 73.614 31.003 133.183 69.317 133.183" fill="#A50011"/><path d="M108.7 191.35c0-100.137 62.711-181.167 140.209-181.167" fill="#0C2245"/><path d="M85.833 192.339s15.415-.475 20.061-3.783c4.646-3.308 23.713-7.258 24.866-1.953 1.152 5.306 23.167 26.388 5.762 26.529-17.404.14-40.439-2.711-45.076-5.536-4.637-2.824-5.613-15.257-5.613-15.257z" fill="#A8A8A8"/><path d="M136.833 211.285c-17.404.14-40.44-2.711-45.076-5.536-3.531-2.15-4.939-9.869-5.41-13.43-.325.014-.514.02-.514.02s.976 12.433 5.613 15.257c4.637 2.825 27.672 5.676 45.077 5.536 5.023-.04 6.759-1.828 6.663-4.476-.698 1.6-2.614 2.599-6.353 2.629z" fill="#000" opacity=".2"/><ellipse fill="#3D6DA2" cx="198.609" cy="424.5" rx="187" ry="25.44"/><ellipse fill="#000" opacity=".1" cx="198.609" cy="424.5" rx="157" ry="21.359"/><ellipse fill="#3D6DA2" cx="836.609" cy="660.5" rx="283" ry="38.5"/><ellipse fill="#3D6DA2" cx="310.609" cy="645.5" rx="170" ry="23.127"/><path d="M462.61 626c90 23 263-30 282-90M309.61 259s130-36 138 80-107 149-17 172M184.011 537.283s39.073-10.82 41.477 24.045c2.405 34.864-32.16 44.783-5.11 51.695" stroke="#0C2245" stroke-width="2"/><path d="M778.705 563.24l-7.878 50.295s-38.782 20.603-11.513 21.209c27.268.606 155.733 0 155.733 0s24.845 0-14.543-21.815l-7.878-52.719-113.921 3.03z" fill="#0C2245"/><path d="M753.828 634.198c6.193-5.51 17-11.252 17-11.252l7.877-50.295 113.921.107 7.878 49.582c9.185 5.087 14.875 8.987 18.203 11.978 5.06-1.154 10.588-5.443-18.203-21.389l-7.878-52.719-113.921 3.03-7.878 50.295s-32.588 17.315-16.999 20.663z" fill="#000" opacity=".1"/><rect fill="#0C2245" x="578.433" y="212.689" width="513.253" height="357.52" rx="18.046"/><path fill="#80B1D6" d="M595.703 231.777h478.713v267.837H595.703z"/><circle fill="#F2F2F2" cx="835.059" cy="223.293" r="3.03"/><path d="M1091.686 520.822v31.34a18.043 18.043 0 01-18.046 18.046H596.48a18.043 18.043 0 01-18.046-18.045v-31.34h513.253zM968.978 667.466v6.06h-326.01v-4.848l.449-1.212 8.035-21.815h310.86zM1094.437 661.534c-.594 2.539-2.836 5.217-7.902 7.75-18.179 9.09-55.143-2.424-55.143-2.424s-28.48-4.848-28.48-17.573c.8-.548 1.634-1.043 2.497-1.485 7.643-4.043 32.984-14.02 77.917.423a18.74 18.74 0 018.541 5.597c1.821 2.132 3.249 4.835 2.57 7.712z" fill="#0C2245"/><path d="M1094.437 661.534c-22.25 8.526-42.084 9.162-62.439-4.975-10.265-7.127-19.59-8.89-26.59-8.757 7.644-4.043 32.985-14.02 77.918.423a18.74 18.74 0 018.541 5.597c1.821 2.132 3.249 4.835 2.57 7.712z" fill="#000" opacity=".1"/><ellipse fill="#F2F2F2" cx="1066.538" cy="654.135" rx="7.878" ry="2.424"/><circle fill="#F2F2F2" cx="835.059" cy="545.667" r="11.513"/><path fill="#000" opacity=".1" d="M968.978 667.466v6.06h-326.01v-4.848l.449-1.212z"/><path fill="#0C2245" d="M108.609 159h208v242h-208z"/><path fill="#12346C" d="M87.609 135h250v86h-250zM87.609 237h250v86h-250zM87.609 339h250v86h-250z"/><path fill="#A50011" opacity=".4" d="M271.609 150h16v16h-16z"/><path fill="#A50011" opacity=".8" d="M294.609 150h16v16h-16z"/><path fill="#A50011" d="M317.609 150h16v16h-16z"/><path fill="#A50011" opacity=".4" d="M271.609 251h16v16h-16z"/><path fill="#A50011" opacity=".8" d="M294.609 251h16v16h-16z"/><path fill="#A50011" d="M317.609 251h16v16h-16z"/><path fill="#A50011" opacity=".4" d="M271.609 352h16v16h-16z"/><path fill="#A50011" opacity=".8" d="M294.609 352h16v16h-16z"/><path fill="#A50011" d="M317.609 352h16v16h-16z"/><circle fill="#0C2245" cx="316.609" cy="538" r="79"/><path fill="#0C2245" d="M280.609 600h24v43h-24zM328.609 600h24v43h-24z"/><ellipse fill="#0C2245" cx="300.609" cy="643.5" rx="20" ry="7.5"/><ellipse fill="#0C2245" cx="348.609" cy="642.5" rx="20" ry="7.5"/><circle fill="#FFF" cx="318.609" cy="518" r="27"/><circle fill="#12346C" cx="318.609" cy="518" r="9"/><path d="M239.976 464.532c-6.378-28.567 14.012-57.434 45.544-64.474 31.533-7.041 62.266 10.41 68.644 38.977 6.38 28.568-14.518 39.104-46.05 46.145-31.532 7.04-61.759 7.92-68.138-20.648z" fill="#A50011"/><ellipse fill="#0C2245" transform="rotate(-23.171 385.824 510.844)" cx="385.824" cy="510.844" rx="39.5" ry="12.4"/><ellipse fill="#0C2245" transform="rotate(-23.171 237.824 563.844)" cx="237.824" cy="563.844" rx="39.5" ry="12.4"/><path d="M362.61 561c0 7.732-19.91 23-42 23-22.092 0-43-14.268-43-22 0-7.732 20.908-6 43-6 22.09 0 42-2.732 42 5z" fill="#FFF"/></g></svg>

