<?xml version="1.0" encoding="UTF-8"?>
<svg width="24px" height="24px" viewBox="0 0 24 24" version="1.1" xmlns="http://www.w3.org/2000/svg" xmlns:xlink="http://www.w3.org/1999/xlink">
    <!-- Generator: Sketch 52.6 (67491) - http://www.bohemiancoding.com/sketch -->
    <title>Artboard</title>
    <desc>Created with Sketch.</desc>
    <g id="Artboard" stroke="none" stroke-width="1" fill="none" fill-rule="evenodd">
        <g id="package-variant-closed" transform="translate(1.000000, 0.000000)" fill="#80B1D6" fill-rule="nonzero">
            <path d="M22,17.4 C22,17.856 21.7433333,18.252 21.3522222,18.456 L11.6966667,23.784 C11.5011111,23.928 11.2566667,24 11,24 C10.7433333,24 10.4988889,23.928 10.3033333,23.784 L0.647777778,18.456 C0.256666667,18.252 0,17.856 0,17.4 L0,6.6 C0,6.144 0.256666667,5.748 0.647777778,5.544 L10.3033333,0.216 C10.4988889,0.072 10.7433333,0 11,0 C11.2566667,0 11.5011111,0.072 11.6966667,0.216 L21.3522222,5.544 C21.7433333,5.748 22,6.144 22,6.6 L22,17.4 Z M11,2.58 L8.69,3.864 L15.8888889,7.932 L18.2844444,6.6 L11,2.58 Z M3.71555556,6.6 L11,10.62 L13.3955556,9.3 L6.20888889,5.22 L3.71555556,6.6 Z M2.44444444,16.692 L9.77777778,20.748 L9.77777778,12.696 L2.44444444,8.652 L2.44444444,16.692 Z M19.5555556,16.692 L19.5555556,8.652 L12.2222222,12.696 L12.2222222,20.748 L19.5555556,16.692 Z" id="Shape"></path>
        </g>
    </g>
</svg>