
<svg id="ekrrtrf1anmm1" xmlns="http://www.w3.org/2000/svg" xmlns:xlink="http://www.w3.org/1999/xlink" viewBox="0 0 512 512" shape-rendering="geometricPrecision" text-rendering="geometricPrecision"><style><![CDATA[#ekrrtrf1anmm3_to {animation: ekrrtrf1anmm3_to__to 5000ms linear infinite normal forwards}@keyframes ekrrtrf1anmm3_to__to { 0% {transform: translate(295px,-564px)} 18% {transform: translate(295px,-564px);animation-timing-function: cubic-bezier(0.420000,0,1,1)} 28% {transform: translate(295px,11px)} 100% {transform: translate(295px,11px)} }#ekrrtrf1anmm3 {animation: ekrrtrf1anmm3_c_o 5000ms linear infinite normal forwards}@keyframes ekrrtrf1anmm3_c_o { 0% {opacity: 1} 82% {opacity: 1} 88% {opacity: 0} 100% {opacity: 0} }#ekrrtrf1anmm7_to {animation: ekrrtrf1anmm7_to__to 5000ms linear infinite normal forwards}@keyframes ekrrtrf1anmm7_to__to { 0% {transform: translate(155px,-464px)} 10% {transform: translate(155px,-464px);animation-timing-function: cubic-bezier(0.420000,0,1,1)} 18% {transform: translate(155px,111px)} 100% {transform: translate(155px,111px)} }#ekrrtrf1anmm7 {animation: ekrrtrf1anmm7_c_o 5000ms linear infinite normal forwards}@keyframes ekrrtrf1anmm7_c_o { 0% {opacity: 1} 80% {opacity: 1} 86% {opacity: 0} 100% {opacity: 0} }#ekrrtrf1anmm11_to {animation: ekrrtrf1anmm11_to__to 5000ms linear infinite normal forwards}@keyframes ekrrtrf1anmm11_to__to { 0% {transform: translate(283px,-354px)} 16% {transform: translate(283px,-354px);animation-timing-function: cubic-bezier(0.420000,0,1,1)} 24% {transform: translate(283px,221px)} 100% {transform: translate(283px,221px)} }#ekrrtrf1anmm11 {animation: ekrrtrf1anmm11_c_o 5000ms linear infinite normal forwards}@keyframes ekrrtrf1anmm11_c_o { 0% {opacity: 1} 78% {opacity: 1} 84% {opacity: 0} 100% {opacity: 0} }#ekrrtrf1anmm15_to {animation: ekrrtrf1anmm15_to__to 5000ms linear infinite normal forwards}@keyframes ekrrtrf1anmm15_to__to { 0% {transform: translate(15px,-364px);animation-timing-function: cubic-bezier(0.420000,0,1,1)} 8% {transform: translate(15px,211px)} 100% {transform: translate(15px,211px)} }#ekrrtrf1anmm15 {animation: ekrrtrf1anmm15_c_o 5000ms linear infinite normal forwards}@keyframes ekrrtrf1anmm15_c_o { 0% {opacity: 1} 76% {opacity: 1} 82% {opacity: 0} 100% {opacity: 0} }#ekrrtrf1anmm19_to {animation: ekrrtrf1anmm19_to__to 5000ms linear infinite normal forwards}@keyframes ekrrtrf1anmm19_to__to { 0% {transform: translate(143px,-249px)} 6% {transform: translate(143px,-249px);animation-timing-function: cubic-bezier(0.420000,0,1,1)} 14% {transform: translate(143px,321px)} 100% {transform: translate(143px,321px)} }#ekrrtrf1anmm19 {animation: ekrrtrf1anmm19_c_o 5000ms linear infinite normal forwards}@keyframes ekrrtrf1anmm19_c_o { 0% {opacity: 1} 74% {opacity: 1} 80% {opacity: 0} 100% {opacity: 0} }]]></style><g id="ekrrtrf1anmm2"><g id="ekrrtrf1anmm3_to" transform="translate(295,-564)"><g id="ekrrtrf1anmm3" transform="translate(0,0)"><path id="ekrrtrf1anmm4" d="M197.022778,170.718000L107.928333,220.002000C106.123889,221.334000,103.868333,222,101.500000,222C99.131667,222,96.876111,221.334000,95.071667,220.002000L5.977222,170.718000C2.368333,168.831000,0,165.168000,0,160.950000L0,61.050000C0,56.832000,2.368333,53.169000,5.977222,51.282000L95.071667,1.998000C96.876111,0.666000,99.131667,0,101.500000,0C103.868333,0,106.123889,0.666000,107.928333,1.998000L197.022778,51.282000C200.631667,53.169000,203,56.832000,203,61.050000L203,160.950000C203,165.168000,200.631667,168.831000,197.022778,170.718000Z" fill="rgb(223,43,60)" fill-rule="evenodd" stroke="none" stroke-width="1"/><path id="ekrrtrf1anmm5" d="M179.862997,161.208393L106.773543,202.143738C105.293250,203.250098,103.442884,203.803279,101.500000,203.803279C99.557116,203.803279,97.706750,203.250098,96.226457,202.143738L23.137003,161.208393C20.176417,159.641049,18.233533,156.598557,18.233533,153.095082L18.233533,70.118033C18.233533,66.614557,20.176417,63.572066,23.137003,62.004721L96.226457,21.069377C97.706750,19.963016,99.557116,19.409836,101.500000,19.409836C103.442884,19.409836,105.293250,19.963016,106.773543,21.069377L179.862997,62.004721C182.823583,63.572066,184.766467,66.614557,184.766467,70.118033L184.766467,153.095082C184.766467,156.598557,182.823583,159.641049,179.862997,161.208393Z" fill="rgb(231,121,129)" fill-rule="evenodd" stroke="none" stroke-width="1"/><path id="ekrrtrf1anmm6" d="M18.233533,70.360656C18.233533,73.857773,20.176417,76.894743,23.137003,78.459243L96.226457,119.320294C97.706750,120.424647,99.557116,120.976823,101.500000,120.976823C103.442884,120.976823,105.293250,120.424647,106.773543,119.320294L179.862997,78.459243C182.823583,76.894743,184.766467,73.857773,184.766467,70.360656L184.766467,153.187111C184.766467,156.684228,182.823583,159.721198,179.862997,161.285698L106.773543,202.146750C105.293250,203.251102,103.442884,203.803279,101.500000,203.803279C99.557116,203.803279,97.706750,203.251102,96.226457,202.146750L23.137003,161.285698C20.176417,159.721198,18.233533,156.684228,18.233533,153.187111L18.233533,70.360656Z" fill="rgb(165,0,17)" stroke="none" stroke-width="1"/></g></g><g id="ekrrtrf1anmm7_to" transform="translate(155,-464)"><g id="ekrrtrf1anmm7" transform="translate(0,0)"><path id="ekrrtrf1anmm8" d="M203,160.950000C203,165.168000,200.631667,168.831000,197.022778,170.718000L107.928333,220.002000C106.123889,221.334000,103.868333,222,101.500000,222C99.131667,222,96.876111,221.334000,95.071667,220.002000L5.977222,170.718000C2.368333,168.831000,0,165.168000,0,160.950000L0,61.050000C0,56.832000,2.368333,53.169000,5.977222,51.282000L95.071667,1.998000C96.876111,0.666000,99.131667,0,101.500000,0C103.868333,0,106.123889,0.666000,107.928333,1.998000L197.022778,51.282000C200.631667,53.169000,203,56.832000,203,61.050000L203,160.950000Z" fill="rgb(61,109,162)" fill-rule="evenodd" stroke="none" stroke-width="1"/><path id="ekrrtrf1anmm9" d="M184.766467,153.095082C184.766467,156.598557,182.823583,159.641049,179.862997,161.208393L106.773543,202.143738C105.293250,203.250098,103.442884,203.803279,101.500000,203.803279C99.557116,203.803279,97.706750,203.250098,96.226457,202.143738L23.137003,161.208393C20.176417,159.641049,18.233533,156.598557,18.233533,153.095082L18.233533,70.118033C18.233533,66.614557,20.176417,63.572066,23.137003,62.004721L96.226457,21.069377C97.706750,19.963016,99.557116,19.409836,101.500000,19.409836C103.442884,19.409836,105.293250,19.963016,106.773543,21.069377L179.862997,62.004721C182.823583,63.572066,184.766467,66.614557,184.766467,70.118033L184.766467,153.095082Z" fill="rgb(128,177,214)" fill-rule="evenodd" stroke="none" stroke-width="1"/><path id="ekrrtrf1anmm10" d="M18.233533,70.360656C18.233533,73.857773,20.176417,76.894743,23.137003,78.459243L96.226457,119.320294C97.706750,120.424647,99.557116,120.976823,101.500000,120.976823C103.442884,120.976823,105.293250,120.424647,106.773543,119.320294L179.862997,78.459243C182.823583,76.894743,184.766467,73.857773,184.766467,70.360656L184.766467,153.187111C184.766467,156.684228,182.823583,159.721198,179.862997,161.285698L106.773543,202.146750C105.293250,203.251102,103.442884,203.803279,101.500000,203.803279C99.557116,203.803279,97.706750,203.251102,96.226457,202.146750L23.137003,161.285698C20.176417,159.721198,18.233533,156.684228,18.233533,153.187111L18.233533,70.360656Z" fill="rgb(18,52,108)" stroke="none" stroke-width="1"/></g></g><g id="ekrrtrf1anmm11_to" transform="translate(283,-354)"><g id="ekrrtrf1anmm11" transform="translate(0,0)"><path id="ekrrtrf1anmm12" d="M167,132.675000C167,136.152000,165.051667,139.171500,162.082778,140.727000L88.788333,181.353000C87.303889,182.451000,85.448333,183,83.500000,183C81.551667,183,79.696111,182.451000,78.211667,181.353000L4.917222,140.727000C1.948333,139.171500,0,136.152000,0,132.675000L0,50.325000C0,46.848000,1.948333,43.828500,4.917222,42.273000L78.211667,1.647000C79.696111,0.549000,81.551667,0,83.500000,0C85.448333,0,87.303889,0.549000,88.788333,1.647000L162.082778,42.273000C165.051667,43.828500,167,46.848000,167,50.325000L167,132.675000Z" fill="rgb(61,109,162)" fill-rule="evenodd" stroke="none" stroke-width="1"/><path id="ekrrtrf1anmm13" d="M152,126.200000C152,129.088000,150.401667,131.596000,147.966111,132.888000L87.838333,166.632000C86.620556,167.544000,85.098333,168,83.500000,168C81.901667,168,80.379444,167.544000,79.161667,166.632000L19.033889,132.888000C16.598333,131.596000,15,129.088000,15,126.200000L15,57.800000C15,54.912000,16.598333,52.404000,19.033889,51.112000L79.161667,17.368000C80.379444,16.456000,81.901667,16,83.500000,16C85.098333,16,86.620556,16.456000,87.838333,17.368000L147.966111,51.112000C150.401667,52.404000,152,54.912000,152,57.800000L152,126.200000Z" fill="rgb(128,177,214)" fill-rule="evenodd" stroke="none" stroke-width="1"/><path id="ekrrtrf1anmm14" d="M15,58C15,60.882759,16.598333,63.386207,19.033889,64.675862L79.161667,98.358621C80.379444,99.268965,81.901667,99.724138,83.500000,99.724138C85.098333,99.724138,86.620556,99.268965,87.838333,98.358621L147.966111,64.675862C150.401667,63.386207,152,60.882759,152,58L152,126.275862C152,129.158621,150.401667,131.662069,147.966111,132.951724L87.838333,166.634483C86.620556,167.544828,85.098333,168,83.500000,168C81.901667,168,80.379444,167.544828,79.161667,166.634483L19.033889,132.951724C16.598333,131.662069,15,129.158621,15,126.275862L15,58Z" fill="rgb(18,52,108)" stroke="none" stroke-width="1"/></g></g><g id="ekrrtrf1anmm15_to" transform="translate(15,-364)"><g id="ekrrtrf1anmm15" transform="translate(0,0)"><path id="ekrrtrf1anmm16" d="M203,160.950000C203,165.168000,200.631667,168.831000,197.022778,170.718000L107.928333,220.002000C106.123889,221.334000,103.868333,222,101.500000,222C99.131667,222,96.876111,221.334000,95.071667,220.002000L5.977222,170.718000C2.368333,168.831000,0,165.168000,0,160.950000L0,61.050000C0,56.832000,2.368333,53.169000,5.977222,51.282000L95.071667,1.998000C96.876111,0.666000,99.131667,0,101.500000,0C103.868333,0,106.123889,0.666000,107.928333,1.998000L197.022778,51.282000C200.631667,53.169000,203,56.832000,203,61.050000L203,160.950000Z" fill="rgb(61,109,162)" fill-rule="evenodd" stroke="none" stroke-width="1"/><path id="ekrrtrf1anmm17" d="M184.766467,153.095082C184.766467,156.598557,182.823583,159.641049,179.862997,161.208393L106.773543,202.143738C105.293250,203.250098,103.442884,203.803279,101.500000,203.803279C99.557116,203.803279,97.706750,203.250098,96.226457,202.143738L23.137003,161.208393C20.176417,159.641049,18.233533,156.598557,18.233533,153.095082L18.233533,70.118033C18.233533,66.614557,20.176417,63.572066,23.137003,62.004721L96.226457,21.069377C97.706750,19.963016,99.557116,19.409836,101.500000,19.409836C103.442884,19.409836,105.293250,19.963016,106.773543,21.069377L179.862997,62.004721C182.823583,63.572066,184.766467,66.614557,184.766467,70.118033L184.766467,153.095082Z" fill="rgb(128,177,214)" fill-rule="evenodd" stroke="none" stroke-width="1"/><path id="ekrrtrf1anmm18" d="M18.233533,70.360656C18.233533,73.857773,20.176417,76.894743,23.137003,78.459243L96.226457,119.320294C97.706750,120.424647,99.557116,120.976823,101.500000,120.976823C103.442884,120.976823,105.293250,120.424647,106.773543,119.320294L179.862997,78.459243C182.823583,76.894743,184.766467,73.857773,184.766467,70.360656L184.766467,153.187111C184.766467,156.684228,182.823583,159.721198,179.862997,161.285698L106.773543,202.146750C105.293250,203.251102,103.442884,203.803279,101.500000,203.803279C99.557116,203.803279,97.706750,203.251102,96.226457,202.146750L23.137003,161.285698C20.176417,159.721198,18.233533,156.684228,18.233533,153.187111L18.233533,70.360656Z" fill="rgb(18,52,108)" stroke="none" stroke-width="1"/></g></g><g id="ekrrtrf1anmm19_to" transform="translate(143,-249)"><g id="ekrrtrf1anmm19" transform="translate(0,0)"><path id="ekrrtrf1anmm20" d="M167,132.675000C167,136.152000,165.051667,139.171500,162.082778,140.727000L88.788333,181.353000C87.303889,182.451000,85.448333,183,83.500000,183C81.551667,183,79.696111,182.451000,78.211667,181.353000L4.917222,140.727000C1.948333,139.171500,0,136.152000,0,132.675000L0,50.325000C0,46.848000,1.948333,43.828500,4.917222,42.273000L78.211667,1.647000C79.696111,0.549000,81.551667,0,83.500000,0C85.448333,0,87.303889,0.549000,88.788333,1.647000L162.082778,42.273000C165.051667,43.828500,167,46.848000,167,50.325000L167,132.675000Z" fill="rgb(61,109,162)" fill-rule="evenodd" stroke="none" stroke-width="1"/><path id="ekrrtrf1anmm21" d="M152,126.200000C152,129.088000,150.401667,131.596000,147.966111,132.888000L87.838333,166.632000C86.620556,167.544000,85.098333,168,83.500000,168C81.901667,168,80.379444,167.544000,79.161667,166.632000L19.033889,132.888000C16.598333,131.596000,15,129.088000,15,126.200000L15,57.800000C15,54.912000,16.598333,52.404000,19.033889,51.112000L79.161667,17.368000C80.379444,16.456000,81.901667,16,83.500000,16C85.098333,16,86.620556,16.456000,87.838333,17.368000L147.966111,51.112000C150.401667,52.404000,152,54.912000,152,57.800000L152,126.200000Z" fill="rgb(128,177,214)" fill-rule="evenodd" stroke="none" stroke-width="1"/><path id="ekrrtrf1anmm22" d="M15,58C15,60.882759,16.598333,63.386207,19.033889,64.675862L79.161667,98.358621C80.379444,99.268965,81.901667,99.724138,83.500000,99.724138C85.098333,99.724138,86.620556,99.268965,87.838333,98.358621L147.966111,64.675862C150.401667,63.386207,152,60.882759,152,58L152,126.275862C152,129.158621,150.401667,131.662069,147.966111,132.951724L87.838333,166.634483C86.620556,167.544828,85.098333,168,83.500000,168C81.901667,168,80.379444,167.544828,79.161667,166.634483L19.033889,132.951724C16.598333,131.662069,15,129.158621,15,126.275862L15,58Z" fill="rgb(18,52,108)" stroke="none" stroke-width="1"/></g></g></g></svg>
