<svg width="24" height="24" viewBox="0 0 24 24" xmlns="http://www.w3.org/2000/svg"><path d="M23 17.4c0 .456-.257.852-.648 1.056l-9.655 5.328A1.17 1.17 0 0 1 12 24a1.17 1.17 0 0 1-.697-.216l-9.655-5.328A1.187 1.187 0 0 1 1 17.4V6.6c0-.456.257-.852.648-1.056L11.303.216C11.5.072 11.743 0 12 0c.257 0 .501.072.697.216l9.655 5.328c.391.204.648.6.648 1.056v10.8zM12 2.58L9.69 3.864l7.199 4.068L19.284 6.6 12 2.58zM4.716 6.6L12 10.62l2.396-1.32-7.187-4.08L4.716 6.6zM3.444 16.692l7.334 4.056v-8.052L3.444 8.652v8.04zm17.112 0v-8.04l-7.334 4.044v8.052l7.334-4.056z" fill="#80B1D6"/></svg>