<svg width="512" height="512" viewBox="0 0 512 512" xmlns="http://www.w3.org/2000/svg"><g fill="none" fill-rule="evenodd"><path d="M492.023 181.718l-89.095 49.284c-1.804 1.332-4.06 1.998-6.428 1.998-2.368 0-4.624-.666-6.428-1.998l-89.095-49.284c-3.609-1.887-5.977-5.55-5.977-9.768v-99.9c0-4.218 2.368-7.881 5.977-9.768l89.095-49.284c1.804-1.332 4.06-1.998 6.428-1.998 2.368 0 4.624.666 6.428 1.998l89.095 49.284c3.609 1.887 5.977 5.55 5.977 9.768v99.9c0 4.218-2.368 7.881-5.977 9.768z" fill="#DF2B3C"/><path d="M474.863 172.208l-73.09 40.936c-1.48 1.106-3.33 1.66-5.273 1.66-1.943 0-3.793-.554-5.274-1.66l-73.089-40.936c-2.96-1.567-4.903-4.61-4.903-8.113V81.118c0-3.503 1.942-6.546 4.903-8.113l73.09-40.936c1.48-1.106 3.33-1.66 5.273-1.66 1.943 0 3.793.554 5.274 1.66l73.089 40.936c2.96 1.567 4.903 4.61 4.903 8.113v82.977c0 3.504-1.942 6.546-4.903 8.113z" fill="#E77981"/><path d="M313.234 81.36c0 3.498 1.942 6.535 4.903 8.1l73.09 40.86c1.48 1.105 3.33 1.657 5.273 1.657 1.943 0 3.793-.552 5.274-1.657l73.089-40.86c2.96-1.565 4.903-4.602 4.903-8.1v82.827c0 3.497-1.942 6.534-4.903 8.099l-73.09 40.86c-1.48 1.105-3.33 1.657-5.273 1.657-1.943 0-3.793-.552-5.274-1.656l-73.089-40.861c-2.96-1.565-4.903-4.602-4.903-8.099V81.361z" fill="#A50011" fill-rule="nonzero"/><path d="M358 271.95c0 4.218-2.368 7.881-5.977 9.768l-89.095 49.284c-1.804 1.332-4.06 1.998-6.428 1.998-2.368 0-4.624-.666-6.428-1.998l-89.095-49.284c-3.609-1.887-5.977-5.55-5.977-9.768v-99.9c0-4.218 2.368-7.881 5.977-9.768l89.095-49.284c1.804-1.332 4.06-1.998 6.428-1.998 2.368 0 4.624.666 6.428 1.998l89.095 49.284c3.609 1.887 5.977 5.55 5.977 9.768v99.9z" fill="#3D6DA2"/><path d="M339.766 264.095c0 3.504-1.942 6.546-4.903 8.113l-73.09 40.936c-1.48 1.106-3.33 1.66-5.273 1.66-1.943 0-3.793-.554-5.274-1.66l-73.089-40.936c-2.96-1.567-4.903-4.61-4.903-8.113v-82.977c0-3.503 1.942-6.546 4.903-8.113l73.09-40.936c1.48-1.106 3.33-1.66 5.273-1.66 1.943 0 3.793.554 5.274 1.66l73.089 40.936c2.96 1.567 4.903 4.61 4.903 8.113v82.977z" fill="#80B1D6"/><path d="M173.234 181.36c0 3.498 1.942 6.535 4.903 8.1l73.09 40.86c1.48 1.105 3.33 1.657 5.273 1.657 1.943 0 3.793-.552 5.274-1.657l73.089-40.86c2.96-1.565 4.903-4.602 4.903-8.1v82.827c0 3.497-1.942 6.534-4.903 8.099l-73.09 40.86c-1.48 1.105-3.33 1.657-5.273 1.657-1.943 0-3.793-.552-5.274-1.656l-73.089-40.861c-2.96-1.565-4.903-4.602-4.903-8.099v-82.826z" fill="#12346C" fill-rule="nonzero"/><path d="M218 371.95c0 4.218-2.368 7.881-5.977 9.768l-89.095 49.284c-1.804 1.332-4.06 1.998-6.428 1.998-2.368 0-4.624-.666-6.428-1.998l-89.095-49.284c-3.609-1.887-5.977-5.55-5.977-9.768v-99.9c0-4.218 2.368-7.881 5.977-9.768l89.095-49.284c1.804-1.332 4.06-1.998 6.428-1.998 2.368 0 4.624.666 6.428 1.998l89.095 49.284c3.609 1.887 5.977 5.55 5.977 9.768v99.9z" fill="#3D6DA2"/><path d="M199.766 364.095c0 3.504-1.942 6.546-4.903 8.113l-73.09 40.936c-1.48 1.106-3.33 1.66-5.273 1.66-1.943 0-3.793-.554-5.274-1.66l-73.089-40.936c-2.96-1.567-4.903-4.61-4.903-8.113v-82.977c0-3.503 1.942-6.546 4.903-8.113l73.09-40.936c1.48-1.106 3.33-1.66 5.273-1.66 1.943 0 3.793.554 5.274 1.66l73.089 40.936c2.96 1.567 4.903 4.61 4.903 8.113v82.977z" fill="#80B1D6"/><path d="M33.234 281.36c0 3.498 1.942 6.535 4.903 8.1l73.09 40.86c1.48 1.105 3.33 1.657 5.273 1.657 1.943 0 3.793-.552 5.274-1.657l73.089-40.86c2.96-1.565 4.903-4.602 4.903-8.1v82.827c0 3.497-1.942 6.534-4.903 8.099l-73.09 40.86c-1.48 1.105-3.33 1.657-5.273 1.657-1.943 0-3.793-.552-5.274-1.656l-73.089-40.861c-2.96-1.565-4.903-4.602-4.903-8.099v-82.826z" fill="#12346C" fill-rule="nonzero"/><path d="M450 353.675c0 3.477-1.948 6.496-4.917 8.052l-73.295 40.626c-1.484 1.098-3.34 1.647-5.288 1.647-1.948 0-3.804-.549-5.288-1.647l-73.295-40.626c-2.969-1.555-4.917-4.575-4.917-8.052v-82.35c0-3.477 1.948-6.497 4.917-8.052l73.295-40.626c1.484-1.098 3.34-1.647 5.288-1.647 1.948 0 3.804.549 5.288 1.647l73.295 40.626c2.969 1.555 4.917 4.575 4.917 8.052v82.35z" fill="#3D6DA2"/><path d="M435 347.2c0 2.888-1.598 5.396-4.034 6.688l-60.128 33.744c-1.217.912-2.74 1.368-4.338 1.368-1.598 0-3.12-.456-4.338-1.368l-60.128-33.744c-2.436-1.292-4.034-3.8-4.034-6.688v-68.4c0-2.888 1.598-5.396 4.034-6.688l60.128-33.744c1.217-.912 2.74-1.368 4.338-1.368 1.598 0 3.12.456 4.338 1.368l60.128 33.744c2.436 1.292 4.034 3.8 4.034 6.688v68.4z" fill="#80B1D6"/><path d="M298 279c0 2.883 1.598 5.386 4.034 6.676l60.128 33.683c1.217.91 2.74 1.365 4.338 1.365 1.598 0 3.12-.455 4.338-1.365l60.128-33.683c2.436-1.29 4.034-3.793 4.034-6.676v68.276c0 2.883-1.598 5.386-4.034 6.676l-60.128 33.682c-1.217.91-2.74 1.366-4.338 1.366-1.598 0-3.12-.455-4.338-1.366l-60.128-33.682c-2.436-1.29-4.034-3.793-4.034-6.676V279z" fill="#12346C" fill-rule="nonzero"/><path d="M310 453.675c0 3.477-1.948 6.496-4.917 8.052l-73.295 40.626c-1.484 1.098-3.34 1.647-5.288 1.647-1.948 0-3.804-.549-5.288-1.647l-73.295-40.626c-2.969-1.555-4.917-4.575-4.917-8.052v-82.35c0-3.477 1.948-6.497 4.917-8.052l73.295-40.626c1.484-1.098 3.34-1.647 5.288-1.647 1.948 0 3.804.549 5.288 1.647l73.295 40.626c2.969 1.555 4.917 4.575 4.917 8.052v82.35z" fill="#3D6DA2"/><path d="M295 447.2c0 2.888-1.598 5.396-4.034 6.688l-60.128 33.744c-1.217.912-2.74 1.368-4.338 1.368-1.598 0-3.12-.456-4.338-1.368l-60.128-33.744c-2.436-1.292-4.034-3.8-4.034-6.688v-68.4c0-2.888 1.598-5.396 4.034-6.688l60.128-33.744c1.217-.912 2.74-1.368 4.338-1.368 1.598 0 3.12.456 4.338 1.368l60.128 33.744c2.436 1.292 4.034 3.8 4.034 6.688v68.4z" fill="#80B1D6"/><path d="M158 379c0 2.883 1.598 5.386 4.034 6.676l60.128 33.683c1.217.91 2.74 1.365 4.338 1.365 1.598 0 3.12-.455 4.338-1.365l60.128-33.683c2.436-1.29 4.034-3.793 4.034-6.676v68.276c0 2.883-1.598 5.386-4.034 6.676l-60.128 33.682c-1.217.91-2.74 1.366-4.338 1.366-1.598 0-3.12-.455-4.338-1.366l-60.128-33.682c-2.436-1.29-4.034-3.793-4.034-6.676V379z" fill="#12346C" fill-rule="nonzero"/></g></svg>